<?xml version="1.0" encoding="UTF-8"?>
<svg version="1.1" xmlns="http://www.w3.org/2000/svg" width="200" height="200">
<path d="M0 0 C66 0 132 0 200 0 C200 66 200 132 200 200 C134 200 68 200 0 200 C0 134 0 68 0 0 Z " fill="#FEFEFE" transform="translate(0,0)"/>
<path d="M0 0 C0 3.96 0 7.92 0 12 C1.14597656 11.855625 2.29195313 11.71125 3.47265625 11.5625 C5.00257715 11.37477964 6.53252661 11.18729203 8.0625 11 C9.19075195 10.85691406 9.19075195 10.85691406 10.34179688 10.7109375 C19.9746848 9.54331472 25.41324872 10.29493081 34 15 C34 21.6 34 28.2 34 35 C25.09 35.66 16.18 36.32 7 37 C7 38.32 7 39.64 7 41 C8.35931641 40.91298828 8.35931641 40.91298828 9.74609375 40.82421875 C18.1548678 40.51278267 23.04695536 41.2047968 30 46 C30 52.6 30 59.2 30 66 C18.615 66.495 18.615 66.495 7 67 C7 78.22 7 89.44 7 101 C-13 103.5 -13 103.5 -24 97 C-24 93.37 -24 89.74 -24 86 C-24.9075 86.165 -25.815 86.33 -26.75 86.5 C-32.14523087 87.2898173 -37.56027822 87.06112047 -43 87 C-43 93.27 -43 99.54 -43 106 C-45.495625 106.350625 -47.99125 106.70125 -50.5625 107.0625 C-51.33408447 107.17601807 -52.10566895 107.28953613 -52.90063477 107.40649414 C-59.37543109 108.26380437 -64.96602344 107.78543497 -70.9375 104.9375 C-71.70964844 104.57527344 -72.48179688 104.21304688 -73.27734375 103.83984375 C-74.13005859 103.42412109 -74.13005859 103.42412109 -75 103 C-75 104.65 -75 106.3 -75 108 C-79.96764996 108.79482399 -84.90923049 109.18977664 -89.9375 109.375 C-91.06027344 109.42398438 -92.18304688 109.47296875 -93.33984375 109.5234375 C-97 109 -97 109 -106 104 C-106 76.61 -106 49.22 -106 21 C-99.83215552 17.91607776 -89.09043924 18.04882362 -82.5859375 20.05078125 C-80.25890197 21.24112363 -78.11341282 22.46538617 -76 24 C-75.67 22.35 -75.34 20.7 -75 19 C-71.04 18.505 -71.04 18.505 -67 18 C-66.67 11.73 -66.34 5.46 -66 -1 C-59.63249264 -1.57531726 -53.26449705 -2.14477184 -46.89599609 -2.70898438 C-44.7330945 -2.90141449 -42.57033056 -3.09539884 -40.40771484 -3.29101562 C-37.28518701 -3.57318043 -34.16219399 -3.8496069 -31.0390625 -4.125 C-29.60719101 -4.25624268 -29.60719101 -4.25624268 -28.14639282 -4.39013672 C-17.05957082 -5.35499952 -9.83408472 -5.61947698 0 0 Z " fill="#060606" transform="translate(139,45)"/>
<path d="M0 0 C0 26.07 0 52.14 0 79 C-5 80 -5 80 -17 80 C-17 68.78 -17 57.56 -17 46 C-18.98 46.495 -18.98 46.495 -21 47 C-24.63 47 -28.26 47 -32 47 C-32 58.22 -32 69.44 -32 81 C-39.92 81.495 -39.92 81.495 -48 82 C-48 55.93 -48 29.86 -48 3 C-40.08 2.505 -40.08 2.505 -32 2 C-32 11.57 -32 21.14 -32 31 C-27.05 30.67 -22.1 30.34 -17 30 C-17 20.43 -17 10.86 -17 1 C-11 0 -11 0 0 0 Z " fill="#FBFBFB" transform="translate(83,65)"/>
<path d="M0 0 C0 5.28 0 10.56 0 16 C-12.87 16.99 -12.87 16.99 -26 18 C-26 22.62 -26 27.24 -26 32 C-24.22625 31.835 -22.4525 31.67 -20.625 31.5 C-15.05637274 31.03043642 -9.58591954 30.91785412 -4 31 C-4 35.95 -4 40.9 -4 46 C-12.13232082 47.5307898 -18.47607532 48 -27 48 C-27 59.22 -27 70.44 -27 82 C-34.92 82.495 -34.92 82.495 -43 83 C-43 56.93 -43 30.86 -43 4 C-38.71669878 3.14333976 -34.55218389 2.61787284 -30.21484375 2.24609375 C-29.10768761 2.14833397 -29.10768761 2.14833397 -27.97816467 2.04859924 C-26.42428002 1.91201172 -24.87027584 1.77677813 -23.31616211 1.64282227 C-20.9415795 1.43785214 -18.56746024 1.22804719 -16.19335938 1.01757812 C-14.67971254 0.88513015 -13.16604144 0.75295925 -11.65234375 0.62109375 C-10.59127663 0.52736732 -10.59127663 0.52736732 -9.5087738 0.43174744 C-6.318003 0.15874484 -3.20658164 0 0 0 Z " fill="#FBFBFB" transform="translate(160,57)"/>
<path d="M0 0 C0 5.28 0 10.56 0 16 C-5.61 16.66 -11.22 17.32 -17 18 C-17.33 38.79 -17.66 59.58 -18 81 C-24 82 -24 82 -34 82 C-34 61.21 -34 40.42 -34 19 C-38.95 19.66 -43.9 20.32 -49 21 C-49.66 21 -50.32 21 -51 21 C-51 15.39 -51 9.78 -51 4 C-45.02307262 3.4255305 -39.04569958 2.8560314 -33.06787109 2.29101562 C-31.03681844 2.09835171 -29.00589124 1.90436016 -26.97509766 1.70898438 C-24.04622325 1.42744471 -21.11692213 1.15077509 -18.1875 0.875 C-17.28821777 0.78750488 -16.38893555 0.70000977 -15.46240234 0.60986328 C-14.17197021 0.48973877 -14.17197021 0.48973877 -12.85546875 0.3671875 C-11.73628052 0.26059814 -11.73628052 0.26059814 -10.59448242 0.15185547 C-7.06865971 -0.0545115 -3.53185689 0 0 0 Z " fill="#FDFDFD" transform="translate(126,42)"/>
<path d="M0 0 C0 3.96 0 7.92 0 12 C1.65 11.67 3.3 11.34 5 11 C6.53901198 10.89007057 8.0821239 10.82575495 9.625 10.8125 C10.38039063 10.79832031 11.13578125 10.78414062 11.9140625 10.76953125 C14 11 14 11 17 13 C-13.8351836 16.44321093 -13.8351836 16.44321093 -19 13 C-17.02 13 -15.04 13 -13 13 C-13 7.72 -13 2.44 -13 -3 C-14.83776001 -2.81824219 -14.83776001 -2.81824219 -16.71264648 -2.6328125 C-21.29132329 -2.18114446 -25.87054707 -1.73524389 -30.44995117 -1.29101562 C-32.42568918 -1.09855998 -34.40127884 -0.90457477 -36.37670898 -0.70898438 C-39.22861997 -0.4268877 -42.08103259 -0.150435 -44.93359375 0.125 C-45.80584091 0.21249512 -46.67808807 0.29999023 -47.57676697 0.39013672 C-53.0782293 0.91450943 -58.47331269 1.07808123 -64 1 C-64 6.61 -64 12.22 -64 18 C-64.33 18 -64.66 18 -65 18 C-65.33 11.73 -65.66 5.46 -66 -1 C-59.63249264 -1.57531726 -53.26449705 -2.14477184 -46.89599609 -2.70898438 C-44.7330945 -2.90141449 -42.57033056 -3.09539884 -40.40771484 -3.29101562 C-37.28518701 -3.57318043 -34.16219399 -3.8496069 -31.0390625 -4.125 C-29.60719101 -4.25624268 -29.60719101 -4.25624268 -28.14639282 -4.39013672 C-17.05957082 -5.35499952 -9.83408472 -5.61947698 0 0 Z " fill="#0D0D0D" transform="translate(139,45)"/>
<path d="M0 0 C0.33 0 0.66 0 1 0 C1 5.94 1 11.88 1 18 C3.97 17.67 6.94 17.34 10 17 C10 17.99 10 18.98 10 20 C1.585 20.495 1.585 20.495 -7 21 C-6.67 20.34 -6.34 19.68 -6 19 C-4.35 18.67 -2.7 18.34 -1 18 C-0.505 9.09 -0.505 9.09 0 0 Z " fill="#050505" transform="translate(73,45)"/>
<path d="M0 0 C1.98 0 3.96 0 6 0 C6 0.99 6 1.98 6 3 C3.69 3 1.38 3 -1 3 C-0.67 2.01 -0.34 1.02 0 0 Z " fill="#1B1B1B" transform="translate(77,62)"/>
</svg>
