<?xml version="1.0" standalone="no"?>
<!DOCTYPE svg PUBLIC "-//W3C//DTD SVG 20010904//EN"
 "http://www.w3.org/TR/2001/REC-SVG-20010904/DTD/svg10.dtd">
<svg version="1.0" xmlns="http://www.w3.org/2000/svg"
 width="400.000000pt" height="400.000000pt" viewBox="0 0 400.000000 400.000000"
 preserveAspectRatio="xMidYMid meet">

<g transform="translate(0.000000,400.000000) scale(0.100000,-0.100000)"
fill="#000000" stroke="none">
<path d="M761 2624 c0 -11 3 -14 6 -6 3 7 2 16 -1 19 -3 4 -6 -2 -5 -13z"/>
<path d="M800 2627 c0 -7 9 -13 20 -14 18 -2 18 0 6 13 -18 17 -26 18 -26 1z"/>
<path d="M2613 2623 c-20 -8 -15 -51 7 -63 28 -15 60 4 60 34 0 30 -31 44 -67
29z"/>
<path d="M3255 2609 c-4 -6 -5 -12 -2 -15 2 -3 7 2 10 11 7 17 1 20 -8 4z"/>
<path d="M812 2588 c-17 -17 -15 -24 10 -25 18 -2 20 0 8 7 -13 9 -13 11 0 20
8 5 10 10 5 10 -6 0 -16 -5 -23 -12z"/>
<path d="M851 2584 c0 -11 3 -14 6 -6 3 7 2 16 -1 19 -3 4 -6 -2 -5 -13z"/>
<path d="M726 2578 c3 -5 10 -6 15 -3 13 9 11 12 -6 12 -8 0 -12 -4 -9 -9z"/>
<path d="M760 2576 c0 -8 4 -17 9 -20 5 -4 7 3 4 14 -6 23 -13 26 -13 6z"/>
<path d="M2346 2582 c-4 -8 11 -273 17 -278 1 -1 17 1 35 3 l32 5 0 69 c0 55
3 71 16 76 34 13 49 -11 52 -82 3 -64 4 -67 25 -61 12 3 30 6 39 6 15 0 17 8
12 68 -7 89 -20 118 -56 133 -25 10 -35 9 -64 -4 l-34 -17 0 45 c0 45 0 45
-34 45 -19 0 -37 -4 -40 -8z"/>
<path d="M2173 2563 l-73 -4 0 -29 c0 -27 3 -30 34 -30 42 0 46 -9 46 -115 0
-46 3 -86 8 -88 4 -3 22 -2 40 0 l32 5 -6 104 -7 104 37 0 c33 0 36 2 36 30 0
28 -2 30 -37 28 -21 -1 -71 -4 -110 -5z"/>
<path d="M810 2535 c-7 -9 -10 -18 -7 -22 4 -3 9 2 13 11 3 9 11 13 17 9 6 -3
7 -1 3 5 -9 15 -11 15 -26 -3z"/>
<path d="M851 2534 c0 -11 3 -14 6 -6 3 7 2 16 -1 19 -3 4 -6 -2 -5 -13z"/>
<path d="M1800 2487 c0 -35 3 -99 7 -141 l6 -77 36 3 36 3 -3 45 -4 45 33 -42
c30 -39 38 -43 76 -43 24 0 43 4 43 8 0 4 -18 26 -40 47 -22 21 -40 43 -40 48
0 4 14 28 30 52 33 48 38 70 14 61 -9 -3 -26 -6 -39 -6 -17 0 -31 -12 -49 -42
l-24 -41 -8 71 -7 72 -33 0 -34 0 0 -63z"/>
<path d="M2773 2540 c-35 -14 -55 -53 -44 -83 9 -24 57 -47 99 -47 6 0 12 -4
12 -9 0 -16 -21 -24 -33 -12 -6 6 -29 11 -50 11 -32 0 -38 -3 -33 -16 3 -9 6
-17 6 -20 0 -2 13 -10 30 -19 66 -34 150 -4 150 55 0 32 -31 60 -66 60 -29 0
-54 10 -54 21 0 5 28 6 61 2 60 -6 61 -6 50 15 -24 46 -76 63 -128 42z"/>
<path d="M761 2524 c0 -11 3 -14 6 -6 3 7 2 16 -1 19 -3 4 -6 -2 -5 -13z"/>
<path d="M2633 2533 c-20 -4 -23 -11 -23 -47 0 -24 3 -71 6 -105 l7 -61 33 0
c34 0 34 0 34 49 0 84 -12 171 -24 170 -6 -1 -21 -4 -33 -6z"/>
<path d="M3255 2500 c-3 -6 1 -7 9 -4 18 7 21 14 7 14 -6 0 -13 -4 -16 -10z"/>
<path d="M1194 2450 l7 -50 -45 0 c-48 0 -56 9 -56 61 0 27 -3 29 -35 29 -34
0 -35 -1 -35 -38 0 -22 3 -80 6 -130 l7 -92 37 0 37 0 -5 55 -4 55 46 0 c45 0
46 -1 46 -32 0 -64 9 -78 44 -71 17 3 32 7 34 8 1 1 -1 59 -4 129 l-7 126 -40
0 -40 0 7 -50z"/>
<path d="M1618 2464 c-96 -52 -57 -204 52 -204 42 0 94 35 103 70 4 17 0 20
-31 20 -19 0 -44 -7 -54 -16 -25 -24 -50 -2 -46 40 l3 31 63 -3 c34 -2 62 -1
62 3 0 18 -24 46 -50 60 -36 19 -67 19 -102 -1z"/>
<path d="M600 2460 c-8 -5 -10 -10 -5 -10 6 0 17 5 25 10 8 5 11 10 5 10 -5 0
-17 -5 -25 -10z"/>
<path d="M1353 2453 c-91 -44 -55 -213 45 -213 9 0 29 7 45 14 15 8 27 11 27
5 0 -5 16 -9 35 -9 40 0 41 2 29 143 l-7 77 -38 0 c-20 0 -39 -5 -41 -10 -2
-6 -14 -7 -34 -1 -23 6 -40 5 -61 -6z m88 -43 c41 -23 9 -110 -40 -110 -26 0
-51 26 -51 53 0 24 37 67 57 67 8 0 23 -5 34 -10z m48 -116 c3 -16 1 -17 -13
-5 -19 16 -21 34 -3 29 6 -3 14 -13 16 -24z"/>
<path d="M3255 2449 c-11 -16 -1 -19 13 -3 7 8 8 14 3 14 -5 0 -13 -5 -16 -11z"/>
<path d="M3255 2399 c-4 -6 -5 -12 -2 -15 2 -3 7 2 10 11 7 17 1 20 -8 4z"/>
<path d="M2752 2283 l-52 -4 6 -82 c7 -105 11 -118 28 -95 8 11 17 14 26 8 11
-7 12 -12 3 -21 -6 -6 -9 -18 -6 -25 3 -10 0 -12 -10 -8 -17 6 -31 -11 -22
-27 5 -7 13 -5 24 5 25 23 33 8 10 -18 -32 -33 -41 -54 -27 -62 6 -4 8 -3 5 3
-9 14 25 51 41 46 8 -3 10 1 5 13 -5 13 -3 15 7 9 8 -5 11 -4 7 2 -14 23 39
140 88 193 18 20 30 43 28 53 -5 18 -26 19 -161 10z m41 -199 c-7 -3 -9 -13
-6 -22 6 -15 5 -15 -11 -3 -13 11 -14 16 -4 22 7 5 18 8 23 8 6 0 5 -3 -2 -5z"/>
<path d="M761 2204 c0 -11 3 -14 6 -6 3 7 2 16 -1 19 -3 4 -6 -2 -5 -13z"/>
<path d="M761 2154 c0 -11 3 -14 6 -6 3 7 2 16 -1 19 -3 4 -6 -2 -5 -13z"/>
<path d="M1465 2158 c-38 -4 -80 -9 -92 -11 -12 -1 -20 -4 -18 -6 6 -6 -22
-31 -37 -32 -7 -1 1 -5 17 -9 l30 -8 -27 -1 c-17 -1 -28 -7 -28 -15 0 -19 17
-30 22 -15 8 23 47 -2 58 -36 9 -26 17 -35 34 -35 39 0 85 21 92 42 3 11 8 17
11 15 2 -3 -1 -15 -7 -27 -11 -20 -9 -21 16 -18 33 4 52 47 53 121 1 54 9 51
-124 35z m50 -88 c-3 -5 -12 -10 -18 -10 -7 0 -6 4 3 10 19 12 23 12 15 0z"/>
<path d="M1076 2115 c-22 -17 -17 -29 7 -19 16 6 32 34 19 34 -4 0 -16 -7 -26
-15z"/>
<path d="M761 2104 c0 -11 3 -14 6 -6 3 7 2 16 -1 19 -3 4 -6 -2 -5 -13z"/>
<path d="M730 2091 c0 -7 -5 -9 -12 -5 -7 5 -8 3 -3 -5 5 -9 10 -10 18 -2 6 6
8 14 4 18 -4 3 -7 1 -7 -6z"/>
<path d="M2840 2045 c-30 -30 -60 -55 -65 -55 -11 0 -55 -78 -55 -97 0 -18 15
-16 30 2 9 11 16 12 25 5 6 -5 15 -7 19 -3 4 4 4 0 0 -10 -3 -9 -2 -17 4 -17
9 0 25 37 23 53 -1 4 4 7 9 7 6 0 24 14 42 30 19 18 25 30 16 30 -7 0 -20 -6
-27 -12 -11 -11 -11 -9 -1 8 8 14 20 20 32 16 14 -3 18 1 18 19 0 13 4 30 9
38 11 17 3 41 -13 41 -6 -1 -36 -25 -66 -55z"/>
<path d="M2550 2070 c-9 -6 -10 -10 -3 -10 6 0 15 5 18 10 8 12 4 12 -15 0z"/>
<path d="M1360 2041 c0 -7 -7 -10 -18 -7 -13 5 -18 0 -20 -17 -2 -32 23 -31
38 1 6 14 8 27 5 30 -3 3 -5 0 -5 -7z"/>
<path d="M2131 1990 c-18 -33 -31 -62 -31 -65 3 -11 -13 -71 -25 -95 -7 -14
-15 -51 -18 -82 -5 -48 -3 -56 10 -51 11 4 14 1 11 -13 -2 -10 -9 -18 -14 -17
-6 1 -11 -4 -11 -12 0 -7 8 -12 18 -10 10 2 20 -3 23 -11 3 -8 12 -11 22 -7
17 6 16 7 0 13 -16 5 -16 8 3 32 25 32 26 39 5 31 -15 -6 -15 -4 -1 18 9 14
16 45 16 74 -1 80 16 129 61 169 26 24 40 44 40 61 0 22 -4 25 -39 25 -37 0
-40 -3 -70 -60z"/>
<path d="M1807 2030 c-16 -5 -35 -15 -44 -22 -9 -7 -19 -13 -22 -13 -6 1 -2
-27 4 -33 8 -8 81 22 102 41 36 32 18 44 -40 27z"/>
<path d="M2387 2003 c-4 -3 -7 -15 -7 -26 0 -19 1 -20 20 -2 11 10 20 22 20
27 0 10 -24 11 -33 1z"/>
<path d="M585 1989 c-4 -5 -4 -13 -1 -16 3 -4 6 0 7 8 0 8 4 6 9 -6 7 -16 9
-17 9 -3 1 21 -15 32 -24 17z"/>
<path d="M626 1984 c-4 -9 -4 -19 -1 -22 2 -3 7 3 11 12 4 9 4 19 1 22 -2 3
-7 -3 -11 -12z"/>
<path d="M1692 1975 c-7 -8 -9 -15 -4 -15 5 0 15 7 22 15 16 19 -1 19 -18 0z"/>
<path d="M550 1971 c0 -7 -4 -9 -10 -6 -5 3 -10 1 -10 -4 0 -6 4 -11 9 -11 13
0 25 20 17 27 -3 4 -6 1 -6 -6z"/>
<path d="M695 1949 c-4 -6 -5 -12 -2 -15 2 -3 7 2 10 11 7 17 1 20 -8 4z"/>
<path d="M1659 1933 c-13 -16 -12 -17 4 -4 9 7 17 15 17 17 0 8 -8 3 -21 -13z"/>
<path d="M2071 1931 c-7 -5 -9 -11 -4 -14 5 -3 15 -2 22 2 7 5 9 11 4 14 -5 3
-15 2 -22 -2z"/>
<path d="M2842 1925 c4 -4 3 -14 -3 -22 -9 -10 -8 -13 5 -13 19 0 22 26 4 36
-7 4 -10 4 -6 -1z"/>
<path d="M735 1899 c-4 -6 -5 -12 -2 -15 2 -3 7 2 10 11 7 17 1 20 -8 4z"/>
<path d="M761 1894 c0 -11 3 -14 6 -6 3 7 2 16 -1 19 -3 4 -6 -2 -5 -13z"/>
<path d="M1113 1888 c-29 -17 -33 -25 -33 -64 0 -24 4 -44 8 -44 5 0 27 29 50
65 45 71 38 83 -25 43z"/>
<path d="M2520 1900 c-8 -5 -11 -12 -7 -16 4 -4 13 -2 19 4 15 15 7 24 -12 12z"/>
<path d="M2755 1890 c-3 -5 -3 -10 2 -10 4 0 2 -4 -6 -9 -20 -13 -22 -38 -4
-53 12 -10 18 -9 29 7 10 13 11 22 3 31 -6 7 -8 18 -5 23 4 5 2 12 -3 15 -5 4
-12 2 -16 -4z m13 -46 c-1 -5 -9 -9 -16 -10 -10 -2 -11 1 -1 12 12 14 24 13
17 -2z"/>
<path d="M2549 1847 c-28 -23 -48 -57 -73 -118 -8 -21 -28 -45 -45 -55 -24
-14 -31 -25 -29 -44 2 -15 8 -24 17 -22 12 2 12 -1 -1 -20 -12 -19 -12 -27 -1
-48 7 -15 9 -26 3 -28 -6 -2 -10 -11 -10 -20 1 -14 5 -12 20 7 16 18 18 27 9
38 -9 11 -9 17 1 26 10 10 12 8 7 -6 -6 -15 -1 -17 39 -13 26 2 51 9 58 16 8
8 7 10 -5 5 -10 -4 -20 -2 -23 4 -8 12 43 53 57 44 6 -4 8 0 4 10 -4 10 -2 14
7 11 9 -4 13 24 15 116 2 131 -2 139 -50 97z m-34 -124 c-9 -21 -27 -49 -41
-63 l-26 -25 26 39 c14 21 26 44 26 50 0 11 19 36 27 36 2 0 -4 -17 -12 -37z"/>
<path d="M2910 1862 c0 -5 7 -15 15 -22 8 -7 15 -8 15 -2 0 5 -7 15 -15 22 -8
7 -15 8 -15 2z"/>
<path d="M1643 1838 c-24 -11 -43 -27 -43 -35 0 -12 8 -13 43 -8 23 4 45 13
49 19 5 6 8 1 8 -13 0 -17 -4 -22 -16 -17 -10 4 -13 2 -8 -6 4 -7 3 -8 -5 -4
-6 4 -23 0 -37 -9 -21 -13 -23 -19 -13 -31 6 -8 14 -12 18 -9 3 3 -1 11 -9 16
-12 9 -11 10 4 5 10 -4 30 1 44 10 13 9 22 12 19 8 -3 -5 1 -14 8 -21 11 -10
15 -6 24 19 13 37 14 48 2 30 -7 -11 -9 -11 -14 2 -4 9 -3 15 1 15 22 -4 38 3
48 19 9 14 7 17 -12 18 -15 1 -21 -2 -17 -10 3 -6 -3 -3 -14 7 -24 21 -28 21
-80 -5z"/>
<path d="M761 1834 c0 -11 3 -14 6 -6 3 7 2 16 -1 19 -3 4 -6 -2 -5 -13z"/>
<path d="M1406 1841 c-4 -5 -19 -7 -35 -5 -16 3 -32 0 -36 -6 -3 -5 -14 -10
-24 -10 -11 0 -29 -9 -42 -21 -26 -22 -25 -22 34 5 65 30 91 4 35 -35 -56 -38
-87 -71 -93 -99 -9 -40 -57 -87 -104 -101 -36 -11 -41 -16 -41 -41 0 -28 2
-29 30 -23 29 6 30 5 24 -20 -6 -24 -4 -25 19 -20 22 6 24 4 21 -22 -4 -26 -4
-26 5 -5 6 12 13 22 16 22 4 0 3 -4 0 -10 -3 -5 0 -10 7 -10 9 0 9 -3 2 -8 -6
-4 -17 -17 -23 -30 -8 -15 2 -9 29 18 22 22 38 45 35 49 -3 5 7 8 21 6 l26 -2
-6 102 -6 102 61 6 c34 3 66 10 72 16 6 6 20 11 32 11 16 0 17 2 5 10 -13 9
-13 11 0 20 8 5 11 10 6 10 -5 0 3 11 18 25 15 14 26 35 26 50 0 27 -18 33
-39 13 -11 -10 -14 -10 -18 0 -5 14 -49 16 -57 3z m-120 -170 c-3 -4 -10 -21
-16 -36 -6 -15 -13 -25 -16 -22 -6 6 23 67 32 67 3 0 3 -4 0 -9z m-41 -181
c-4 -6 -1 -17 5 -25 7 -9 8 -15 2 -15 -12 0 -24 29 -16 41 3 5 7 9 10 9 3 0 2
-5 -1 -10z"/>
<path d="M2868 1821 c3 -9 1 -12 -7 -7 -16 10 -43 -14 -36 -32 3 -9 0 -12 -8
-9 -10 4 -13 -2 -9 -20 4 -20 1 -24 -14 -22 -11 2 -29 -1 -42 -5 -18 -6 -21
-11 -11 -22 6 -7 9 -20 6 -29 -4 -8 -2 -17 3 -20 6 -4 10 -1 10 5 0 6 4 9 9 5
9 -5 27 32 23 48 -1 4 5 7 13 7 8 0 15 5 15 10 0 6 0 12 0 15 0 12 55 65 67
65 8 0 11 5 7 12 -5 8 -2 9 12 4 10 -4 15 -3 10 1 -4 4 -18 8 -31 8 -16 1 -21
-3 -17 -14z"/>
<path d="M2915 1807 c-14 -11 -15 -16 -5 -22 9 -5 11 -4 6 3 -4 7 -2 10 7 6 8
-3 14 2 14 11 0 18 1 18 -22 2z"/>
<path d="M710 1795 c0 -7 30 -13 34 -7 3 4 -4 9 -15 9 -10 1 -19 0 -19 -2z"/>
<path d="M761 1784 c0 -11 3 -14 6 -6 3 7 2 16 -1 19 -3 4 -6 -2 -5 -13z"/>
<path d="M2740 1779 c0 -5 5 -7 10 -4 6 3 10 8 10 11 0 2 -4 4 -10 4 -5 0 -10
-5 -10 -11z"/>
<path d="M2888 1778 c10 -13 10 -18 1 -24 -8 -4 -9 -3 -5 4 4 7 4 12 1 12 -8
0 -57 -57 -68 -79 -5 -9 0 -6 10 6 10 13 23 19 30 15 17 -10 -20 -52 -46 -52
-20 0 -29 -14 -13 -23 4 -2 2 -2 -5 -1 -7 2 -15 -1 -19 -7 -3 -6 -12 -8 -20
-5 -10 4 -14 -3 -14 -24 0 -33 19 -40 40 -15 7 8 21 15 31 15 28 0 101 51 95
66 -3 9 0 11 11 7 10 -4 14 -2 9 5 -3 6 -2 14 4 17 7 4 2 14 -12 27 l-23 19
25 20 c14 11 18 19 10 16 -8 -2 -24 0 -35 6 -17 9 -18 8 -7 -5z"/>
<path d="M715 1739 c-3 -4 2 -6 10 -5 21 3 28 13 10 13 -9 0 -18 -4 -20 -8z"/>
<path d="M761 1734 c0 -11 3 -14 6 -6 3 7 2 16 -1 19 -3 4 -6 -2 -5 -13z"/>
<path d="M1507 1744 c-10 -10 -9 -44 2 -44 13 0 23 32 13 42 -5 5 -11 5 -15 2z"/>
<path d="M1095 1730 c-11 -17 5 -32 21 -19 8 6 14 15 14 20 0 12 -27 11 -35
-1z"/>
<path d="M1646 1703 c-14 -14 -26 -31 -25 -37 0 -7 3 -6 6 2 2 6 10 12 16 12
6 0 0 -11 -13 -25 -13 -14 -19 -26 -14 -26 5 -1 14 -2 19 -4 6 -1 16 -3 23 -3
6 -1 12 -9 12 -18 0 -14 -3 -14 -15 -4 -9 8 -15 8 -15 2 0 -6 -3 -17 -6 -25
-3 -10 -1 -14 8 -12 41 10 58 19 58 32 0 8 -5 11 -10 8 -7 -4 -8 3 -4 21 5 21
4 25 -6 19 -9 -5 -11 -4 -6 4 4 6 11 9 16 6 4 -3 13 1 19 9 9 10 8 15 -4 20
-9 3 -13 2 -10 -4 3 -6 2 -10 -2 -10 -5 0 -14 9 -21 21 -8 12 -9 18 -3 15 5
-4 12 -2 15 3 14 23 -14 18 -38 -6z"/>
<path d="M2134 1676 c-10 -8 -16 -17 -13 -20 3 -3 14 3 24 14 21 23 17 26 -11
6z"/>
<path d="M730 1671 c0 -7 -5 -9 -12 -5 -7 5 -8 3 -3 -5 5 -9 10 -10 18 -2 6 6
8 14 4 18 -4 3 -7 1 -7 -6z"/>
<path d="M2172 1638 c-33 -13 -49 -24 -41 -29 7 -4 9 -14 6 -23 -8 -22 12 -29
44 -17 13 6 17 10 9 11 -9 1 -4 6 10 12 14 6 31 10 38 9 7 -1 12 10 12 29 0
35 -6 36 -78 8z"/>
<path d="M761 1624 c0 -11 3 -14 6 -6 3 7 2 16 -1 19 -3 4 -6 -2 -5 -13z"/>
<path d="M3360 1625 c0 -7 30 -13 34 -7 3 4 -4 9 -15 9 -10 1 -19 0 -19 -2z"/>
<path d="M1997 1606 c3 -5 -4 -16 -16 -25 -21 -16 -21 -17 -2 -17 11 0 17 4
15 8 -3 5 -2 8 3 7 20 -4 33 2 33 15 0 8 6 17 13 19 6 3 -2 4 -20 4 -17 -1
-29 -6 -26 -11z"/>
<path d="M2220 1590 c0 -5 5 -10 11 -10 5 0 7 5 4 10 -3 6 -8 10 -11 10 -2 0
-4 -4 -4 -10z"/>
<path d="M722 1576 c7 -8 15 -12 17 -11 5 6 -10 25 -20 25 -5 0 -4 -6 3 -14z"/>
<path d="M761 1574 c0 -11 3 -14 6 -6 3 7 2 16 -1 19 -3 4 -6 -2 -5 -13z"/>
<path d="M2007 1562 c-31 -19 -33 -27 -13 -48 19 -18 26 -18 56 6 l25 19 -21
19 c-19 18 -22 19 -47 4z"/>
<path d="M2184 1549 c-18 -5 -39 -20 -48 -34 -9 -14 -21 -23 -26 -20 -16 10
-45 -18 -48 -48 -3 -26 -2 -27 25 -21 54 12 63 15 58 24 -7 11 60 60 93 69 15
4 28 15 30 24 4 19 -31 22 -84 6z"/>
<path d="M761 1524 c0 -11 3 -14 6 -6 3 7 2 16 -1 19 -3 4 -6 -2 -5 -13z"/>
<path d="M2475 1520 c4 -6 11 -8 16 -5 14 9 11 15 -7 15 -8 0 -12 -5 -9 -10z"/>
<path d="M2825 1508 c-16 -6 -39 -17 -50 -26 -18 -13 -12 -14 59 -8 43 3 90 6
103 6 13 0 23 6 23 14 0 26 -79 34 -135 14z"/>
<path d="M3367 1499 c4 -13 8 -18 11 -10 2 7 -1 18 -6 23 -8 8 -9 4 -5 -13z"/>
<path d="M1709 1508 c-8 -27 -5 -36 9 -30 10 4 12 7 4 10 -7 2 -10 8 -6 13 3
5 3 9 0 9 -3 0 -6 -1 -7 -2z"/>
<path d="M2450 1495 c0 -8 2 -15 4 -15 2 0 6 7 10 15 3 8 1 15 -4 15 -6 0 -10
-7 -10 -15z"/>
<path d="M2581 1493 c-12 -13 -12 -16 0 -24 9 -6 15 -4 17 6 6 26 -2 34 -17
18z"/>
<path d="M3310 1501 c13 -10 13 -12 0 -22 -13 -9 -13 -10 0 -6 8 2 15 10 15
17 0 7 -7 15 -15 17 -13 4 -13 3 0 -6z"/>
<path d="M3232 1480 c0 -14 2 -19 5 -12 2 6 2 18 0 25 -3 6 -5 1 -5 -13z"/>
<path d="M2198 1477 c-16 -6 -28 -15 -28 -20 0 -4 -4 -5 -10 -2 -6 3 -7 -1 -4
-10 5 -12 13 -15 28 -10 11 4 34 6 49 6 17 -1 26 3 22 9 -3 5 -1 10 4 10 6 0
11 7 11 15 0 17 -31 18 -72 2z"/>
<path d="M3161 1477 c-1 -11 -6 -15 -13 -11 -7 5 -8 3 -3 -5 10 -16 29 2 22
21 -4 8 -6 7 -6 -5z"/>
<path d="M3180 1477 c0 -7 9 -13 20 -14 18 -2 18 0 6 13 -18 17 -26 18 -26 1z"/>
<path d="M717 1459 c4 -13 8 -18 11 -10 2 7 -1 18 -6 23 -8 8 -9 4 -5 -13z"/>
<path d="M2425 1470 c-3 -5 -1 -10 4 -10 6 0 11 5 11 10 0 6 -2 10 -4 10 -3 0
-8 -4 -11 -10z"/>
<path d="M3216 1442 c5 -4 12 -11 15 -15 3 -5 9 -2 12 5 3 9 -3 14 -15 15 -11
1 -16 -1 -12 -5z"/>
<path d="M3178 1418 c-10 -10 -14 -18 -9 -18 10 0 36 29 30 34 -2 1 -12 -6
-21 -16z"/>
<path d="M1153 1412 c-8 -5 -8 -12 3 -26 7 -11 17 -16 21 -11 5 4 2 10 -5 12
-10 4 -10 8 -1 19 12 15 2 19 -18 6z"/>
<path d="M3325 1400 c-3 -6 1 -7 9 -4 18 7 21 14 7 14 -6 0 -13 -4 -16 -10z"/>
<path d="M883 1383 c-15 -5 -17 -23 -4 -23 5 0 11 7 15 15 3 8 4 15 3 14 -1 0
-8 -3 -14 -6z"/>
<path d="M1116 1382 c-3 -5 1 -9 9 -9 8 0 15 4 15 9 0 4 -4 8 -9 8 -6 0 -12
-4 -15 -8z"/>
</g>
</svg>
