<?xml version="1.0" standalone="no"?>
<!DOCTYPE svg PUBLIC "-//W3C//DTD SVG 20010904//EN"
 "http://www.w3.org/TR/2001/REC-SVG-20010904/DTD/svg10.dtd">
<svg version="1.0" xmlns="http://www.w3.org/2000/svg"
 width="500.000000pt" height="500.000000pt" viewBox="0 0 500.000000 500.000000"
 preserveAspectRatio="xMidYMid meet">

<g transform="translate(0.000000,500.000000) scale(0.100000,-0.100000)"
fill="#000000" stroke="none">
<path d="M3168 3248 l-328 -190 0 -249 c0 -192 3 -249 13 -249 6 0 107 -9 222
-20 116 -11 218 -20 228 -20 15 0 17 -14 17 -156 0 -152 0 -155 -20 -149 -12
4 -76 31 -143 60 l-122 53 -5 73 -5 73 -92 17 -93 16 0 -142 0 -143 330 -191
c181 -105 334 -191 340 -191 12 0 15 936 3 943 -5 2 -115 -8 -246 -22 l-238
-27 3 109 3 109 138 59 c77 32 141 59 143 59 2 0 4 -54 4 -120 l0 -120 28 1
c15 0 59 6 97 12 l70 12 3 293 c2 230 0 292 -10 291 -7 0 -160 -86 -340 -191z"/>
<path d="M3600 3190 c0 -192 3 -252 13 -255 11 -4 643 -95 660 -95 4 0 7 49 7
109 l0 108 -331 192 c-182 105 -335 191 -340 191 -5 0 -9 -104 -9 -250z m474
-116 c43 -42 -14 -112 -63 -78 -23 17 -28 63 -9 82 17 17 54 15 72 -4z"/>
<path d="M1836 3325 c-22 -8 -52 -26 -67 -42 -15 -15 -255 -320 -534 -678
l-506 -650 167 -3 c150 -2 170 -1 185 15 19 20 1051 1341 1063 1361 11 18
-255 16 -308 -3z"/>
<path d="M1653 2648 l-541 -693 144 -3 c128 -2 148 0 184 18 47 24 30 3 430
532 l315 417 3 -164 c1 -91 1 -239 0 -329 l-3 -164 -144 104 c-79 57 -147 104
-151 104 -4 0 -30 -32 -58 -72 -53 -73 -62 -104 -39 -145 11 -19 334 -265 385
-292 12 -6 71 -11 141 -11 l121 0 0 695 0 695 -123 0 -124 0 -540 -692z"/>
<path d="M2477 3333 c-4 -3 -7 -316 -7 -695 l0 -688 99 0 c93 0 100 1 125 26
l26 27 0 636 c0 708 4 671 -68 691 -41 11 -165 14 -175 3z"/>
<path d="M3600 2640 c0 -203 1 -220 18 -220 9 0 159 20 332 45 173 25 318 45
323 45 4 0 7 59 7 130 0 72 -3 130 -7 130 -5 0 -152 20 -328 45 -176 25 -326
45 -332 45 -10 0 -13 -51 -13 -220z m482 25 c17 -37 -3 -75 -40 -75 -35 0 -52
16 -52 50 0 34 17 50 52 50 21 0 32 -7 40 -25z"/>
<path d="M3920 2391 l-315 -46 -3 -252 c-1 -153 1 -253 7 -253 5 0 158 86 340
191 l331 192 0 108 c0 107 0 109 -22 108 -13 -1 -165 -22 -338 -48z m164 -133
c8 -22 6 -32 -9 -48 -34 -38 -85 -20 -85 30 0 35 19 52 55 48 22 -2 32 -10 39
-30z"/>
<path d="M635 1708 c-42 -189 -39 -168 -21 -168 8 0 18 9 21 20 3 11 15 20 25
20 9 0 20 -9 23 -20 3 -11 12 -20 20 -20 13 0 13 11 -4 85 -10 47 -21 90 -24
95 -11 18 -35 10 -40 -12z m35 -85 c0 -13 -4 -23 -10 -23 -5 0 -10 17 -10 38
0 27 3 33 10 22 5 -8 10 -25 10 -37z"/>
<path d="M740 1634 l0 -95 43 3 42 3 3 80 c3 88 -6 105 -60 105 l-28 0 0 -96z
m58 -2 c2 -51 0 -62 -13 -62 -12 0 -15 13 -15 66 0 48 3 65 13 62 7 -3 13 -28
15 -66z"/>
<path d="M850 1723 c0 -7 9 -48 35 -160 6 -27 31 -30 39 -5 9 29 36 153 36
163 0 5 -6 9 -14 9 -8 0 -18 -23 -26 -62 l-13 -63 -15 63 c-9 40 -19 62 -28
62 -8 0 -14 -3 -14 -7z"/>
<path d="M1016 1718 c-7 -21 -36 -156 -36 -167 0 -19 28 -11 33 9 3 12 14 20
26 20 14 0 21 -6 21 -20 0 -11 7 -20 15 -20 19 0 18 17 -3 110 -13 54 -22 76
-35 78 -9 2 -19 -2 -21 -10z m33 -100 c1 -10 -6 -18 -15 -18 -12 0 -15 6 -10
23 3 12 6 29 7 37 1 20 17 -18 18 -42z"/>
<path d="M1120 1635 c0 -78 3 -95 15 -95 11 0 15 12 16 48 l0 47 17 -45 c10
-26 25 -46 35 -48 16 -3 18 5 15 90 -2 75 -6 93 -18 93 -10 0 -17 -13 -20 -40
l-5 -40 -17 43 c-27 68 -38 53 -38 -53z"/>
<path d="M1251 1716 c-8 -9 -11 -43 -9 -93 l3 -78 40 0 c36 0 40 3 43 28 2 19
-1 27 -12 27 -9 0 -16 -7 -16 -15 0 -8 -7 -15 -15 -15 -12 0 -15 13 -15 59 0
64 12 84 30 51 15 -29 30 -25 30 9 0 40 -53 58 -79 27z"/>
<path d="M1360 1635 l0 -95 45 0 c33 0 45 4 45 15 0 10 -10 15 -30 15 -25 0
-30 4 -30 25 0 20 5 25 26 25 31 0 28 23 -4 28 -16 2 -22 10 -22 28 0 20 5 24
30 24 20 0 30 5 30 15 0 11 -12 15 -45 15 l-45 0 0 -95z"/>
<path d="M1477 1723 c-4 -3 -7 -46 -7 -95 l0 -89 43 3 42 3 3 84 c2 61 -1 87
-10 92 -16 10 -62 12 -71 2z m53 -88 c0 -51 -3 -65 -15 -65 -12 0 -15 13 -15
58 0 32 3 62 7 65 17 17 23 2 23 -58z"/>
<path d="M1663 1723 c-8 -3 -13 -23 -13 -48 0 -39 3 -44 30 -54 32 -11 44 -51
15 -51 -8 0 -15 7 -15 15 0 8 -7 15 -16 15 -11 0 -14 -8 -12 -27 3 -25 7 -28
43 -28 l40 0 3 43 c3 40 1 44 -27 55 -18 7 -31 19 -31 29 0 26 21 33 27 9 6
-25 26 -23 32 4 6 31 -39 54 -76 38z"/>
<path d="M1776 1714 c-19 -18 -22 -124 -6 -155 12 -22 59 -26 78 -7 7 7 12 41
12 85 0 61 -3 74 -19 83 -27 14 -47 13 -65 -6z m52 -82 c2 -51 0 -62 -13 -62
-12 0 -15 13 -15 66 0 48 3 65 13 62 7 -3 13 -28 15 -66z"/>
<path d="M1880 1635 c0 -78 3 -95 15 -95 11 0 15 11 15 40 0 36 3 40 25 40 16
0 25 6 25 15 0 9 -9 15 -25 15 -20 0 -25 5 -25 25 0 21 5 25 30 25 20 0 30 5
30 15 0 11 -12 15 -45 15 l-45 0 0 -95z"/>
<path d="M1997 1724 c-12 -12 -8 -24 8 -24 12 0 15 -16 15 -80 0 -64 3 -80 15
-80 12 0 15 15 15 76 0 68 2 76 20 81 12 3 19 11 17 17 -4 12 -79 21 -90 10z"/>
<path d="M2110 1697 c0 -19 3 -62 6 -96 6 -49 10 -61 24 -61 13 0 20 11 25 37
11 58 18 62 30 13 6 -26 17 -46 26 -48 13 -2 18 15 27 85 6 52 7 92 1 97 -13
14 -20 3 -28 -51 l-7 -48 -8 35 c-19 88 -28 92 -47 18 l-14 -53 -5 49 c-6 58
-30 76 -30 23z"/>
<path d="M2315 1708 c-42 -189 -39 -168 -21 -168 8 0 18 9 21 20 3 11 15 20
25 20 9 0 20 -9 23 -20 3 -11 12 -20 20 -20 13 0 13 11 -4 85 -10 47 -21 90
-24 95 -11 18 -35 10 -40 -12z m35 -85 c0 -13 -4 -23 -10 -23 -5 0 -10 17 -10
38 0 27 3 33 10 22 5 -8 10 -25 10 -37z"/>
<path d="M2420 1635 c0 -78 3 -95 15 -95 10 0 15 10 15 30 0 17 4 30 9 30 5 0
12 -13 16 -30 4 -16 12 -30 19 -30 17 0 21 171 3 182 -6 4 -27 8 -44 8 l-33 0
0 -95z m60 30 c0 -24 -5 -35 -15 -35 -10 0 -15 11 -15 35 0 24 5 35 15 35 10
0 15 -11 15 -35z"/>
<path d="M2540 1635 l0 -95 45 0 c33 0 45 4 45 15 0 10 -10 15 -30 15 -25 0
-30 4 -30 25 0 20 5 25 26 25 31 0 28 23 -4 28 -16 2 -22 10 -22 28 0 20 5 24
30 24 20 0 30 5 30 15 0 11 -12 15 -45 15 l-45 0 0 -95z"/>
<path d="M2717 1723 c-4 -3 -7 -46 -7 -95 l0 -88 45 0 c33 0 45 4 45 15 0 10
-10 15 -30 15 -25 0 -30 4 -30 25 0 20 5 25 25 25 16 0 25 6 25 15 0 9 -10 15
-26 15 -21 0 -25 4 -22 23 2 16 11 23 31 25 43 5 34 32 -11 32 -21 0 -42 -3
-45 -7z"/>
<path d="M2830 1635 c0 -78 3 -95 15 -95 11 0 15 12 16 48 l0 47 17 -45 c10
-26 25 -46 35 -48 16 -3 18 5 15 90 -2 75 -6 93 -18 93 -10 0 -17 -13 -20 -40
l-5 -40 -17 43 c-27 68 -38 53 -38 -53z"/>
<path d="M2968 1719 c-15 -8 -18 -24 -18 -82 0 -80 9 -97 50 -97 36 0 50 17
50 62 0 34 -3 38 -25 38 -16 0 -25 -6 -25 -15 0 -8 5 -15 10 -15 6 0 10 -9 10
-21 0 -14 -5 -19 -17 -17 -14 2 -19 15 -21 57 -4 65 11 87 36 53 19 -24 32
-20 32 9 0 32 -48 48 -82 28z"/>
<path d="M3077 1723 c-4 -3 -7 -46 -7 -95 0 -72 3 -88 15 -88 12 0 15 17 15
95 0 87 -5 107 -23 88z"/>
<path d="M3130 1635 c0 -78 3 -95 15 -95 11 0 15 12 16 48 l0 47 17 -45 c10
-26 25 -46 35 -48 16 -3 18 5 15 90 -2 75 -6 93 -18 93 -10 0 -17 -13 -20 -40
l-5 -40 -17 43 c-27 68 -38 53 -38 -53z"/>
<path d="M3250 1635 l0 -95 45 0 c33 0 45 4 45 15 0 10 -10 15 -30 15 -25 0
-30 4 -30 25 0 20 5 25 25 25 16 0 25 6 25 15 0 9 -9 15 -25 15 -20 0 -25 5
-25 25 0 21 5 25 30 25 20 0 30 5 30 15 0 11 -12 15 -45 15 l-45 0 0 -95z"/>
<path d="M3370 1635 l0 -95 45 0 c33 0 45 4 45 15 0 10 -10 15 -30 15 -25 0
-30 4 -30 25 0 20 5 25 26 25 31 0 28 23 -4 28 -16 2 -22 10 -22 28 0 20 5 24
30 24 20 0 30 5 30 15 0 11 -12 15 -45 15 l-45 0 0 -95z"/>
<path d="M3487 1723 c-4 -3 -7 -46 -7 -95 0 -72 3 -88 15 -88 10 0 15 10 15
30 0 17 4 30 9 30 5 0 14 -13 20 -30 14 -42 43 -41 31 1 -6 20 -6 39 0 50 17
32 12 87 -9 99 -22 11 -64 13 -74 3z m58 -59 c0 -19 -5 -29 -15 -29 -16 0 -25
28 -16 51 10 25 31 10 31 -22z"/>
<path d="M3607 1723 c-4 -3 -7 -46 -7 -95 0 -72 3 -88 15 -88 12 0 15 17 15
95 0 87 -5 107 -23 88z"/>
<path d="M3660 1635 c0 -78 3 -95 15 -95 11 0 15 12 16 48 l0 47 17 -45 c10
-26 25 -46 35 -48 16 -3 18 5 15 90 -2 75 -6 93 -18 93 -10 0 -17 -13 -20 -40
l-5 -40 -17 43 c-27 68 -38 53 -38 -53z"/>
<path d="M3791 1716 c-8 -9 -11 -43 -9 -93 l3 -78 33 -3 c44 -4 62 12 62 59 0
35 -3 39 -25 39 -26 0 -36 -25 -13 -32 16 -6 2 -38 -17 -38 -13 0 -15 11 -13
62 3 63 24 92 35 49 6 -24 26 -23 31 1 7 38 -62 64 -87 34z"/>
<path d="M3971 1716 c-8 -9 -11 -43 -9 -93 l3 -78 40 0 c36 0 40 3 43 28 2 19
-1 27 -12 27 -9 0 -16 -7 -16 -15 0 -8 -7 -15 -15 -15 -12 0 -15 13 -15 59 0
64 12 84 30 51 15 -29 30 -25 30 9 0 40 -53 58 -79 27z"/>
<path d="M4075 1717 c-3 -7 -5 -49 -3 -93 l3 -79 43 -3 c33 -2 42 0 42 12 0
10 -9 16 -25 16 -23 0 -24 3 -27 77 -2 50 -7 78 -15 81 -7 2 -15 -3 -18 -11z"/>
<path d="M4192 1638 l3 -93 40 0 40 0 3 93 c2 73 0 93 -10 90 -9 -3 -14 -30
-16 -81 -2 -59 -6 -77 -17 -77 -12 0 -15 17 -15 80 0 65 -3 80 -15 80 -13 0
-15 -15 -13 -92z"/>
<path d="M4310 1634 l0 -95 43 3 42 3 2 80 c3 89 -6 105 -59 105 l-28 0 0 -96z
m58 38 c2 -15 -2 -22 -12 -22 -11 0 -16 9 -16 26 0 31 23 28 28 -4z m2 -77 c0
-16 -6 -25 -15 -25 -9 0 -15 9 -15 25 0 16 6 25 15 25 9 0 15 -9 15 -25z"/>
</g>
</svg>
